<?xml version="1.0" standalone="no"?>
<svg xmlns:xlink="http://www.w3.org/1999/xlink" id="wave" style="transform:rotate(0deg); transition: 0.3s" viewBox="0 0 1440 160" version="1.1" xmlns="http://www.w3.org/2000/svg"><defs><linearGradient id="sw-gradient-0" x1="0" x2="0" y1="1" y2="0"><stop stop-color="#0d6efd" offset="0%"/><stop stop-color="#0d6efd" offset="100%"/></linearGradient></defs><path style="transform:translate(0, 0px); opacity:1" fill="url(#sw-gradient-0)" d="M0,144L18.5,133.3C36.9,123,74,101,111,101.3C147.7,101,185,123,222,133.3C258.5,144,295,144,332,125.3C369.2,107,406,69,443,45.3C480,21,517,11,554,18.7C590.8,27,628,53,665,56C701.5,59,738,37,775,34.7C812.3,32,849,48,886,53.3C923.1,59,960,53,997,64C1033.8,75,1071,101,1108,114.7C1144.6,128,1182,128,1218,109.3C1255.4,91,1292,53,1329,32C1366.2,11,1403,5,1440,21.3C1476.9,37,1514,75,1551,80C1587.7,85,1625,59,1662,64C1698.5,69,1735,107,1772,112C1809.2,117,1846,91,1883,77.3C1920,64,1957,64,1994,72C2030.8,80,2068,96,2105,104C2141.5,112,2178,112,2215,117.3C2252.3,123,2289,133,2326,138.7C2363.1,144,2400,144,2437,120C2473.8,96,2511,48,2548,34.7C2584.6,21,2622,43,2640,53.3L2658.5,64L2658.5,160L2640,160C2621.5,160,2585,160,2548,160C2510.8,160,2474,160,2437,160C2400,160,2363,160,2326,160C2289.2,160,2252,160,2215,160C2178.5,160,2142,160,2105,160C2067.7,160,2031,160,1994,160C1956.9,160,1920,160,1883,160C1846.2,160,1809,160,1772,160C1735.4,160,1698,160,1662,160C1624.6,160,1588,160,1551,160C1513.8,160,1477,160,1440,160C1403.1,160,1366,160,1329,160C1292.3,160,1255,160,1218,160C1181.5,160,1145,160,1108,160C1070.8,160,1034,160,997,160C960,160,923,160,886,160C849.2,160,812,160,775,160C738.5,160,702,160,665,160C627.7,160,591,160,554,160C516.9,160,480,160,443,160C406.2,160,369,160,332,160C295.4,160,258,160,222,160C184.6,160,148,160,111,160C73.8,160,37,160,18,160L0,160Z"/></svg>