<svg id="wave" style="transform:rotate(0deg); transition: 0.3s" viewBox="0 0 1440 110" version="1.1" xmlns="http://www.w3.org/2000/svg"><defs><linearGradient id="sw-gradient-0" x1="0" x2="0" y1="1" y2="0"><stop stop-color="#ffffff" offset="0%"></stop><stop stop-color="#ffffff" offset="100%"></stop></linearGradient></defs><path style="transform:translate(0, 0px); opacity:1" fill="url(#sw-gradient-0)" d="M0,11L20,20.2C40,29,80,48,120,47.7C160,48,200,29,240,27.5C280,26,320,40,360,55C400,70,440,84,480,89.8C520,95,560,92,600,78.8C640,66,680,44,720,42.2C760,40,800,59,840,55C880,51,920,26,960,22C1000,18,1040,37,1080,40.3C1120,44,1160,33,1200,25.7C1240,18,1280,15,1320,22C1360,29,1400,48,1440,51.3C1480,55,1520,44,1560,36.7C1600,29,1640,26,1680,23.8C1720,22,1760,22,1800,33C1840,44,1880,66,1920,64.2C1960,62,2000,37,2040,27.5C2080,18,2120,26,2160,25.7C2200,26,2240,18,2280,29.3C2320,40,2360,70,2400,75.2C2440,81,2480,62,2520,47.7C2560,33,2600,22,2640,27.5C2680,33,2720,55,2760,62.3C2800,70,2840,62,2860,58.7L2880,55L2880,110L2860,110C2840,110,2800,110,2760,110C2720,110,2680,110,2640,110C2600,110,2560,110,2520,110C2480,110,2440,110,2400,110C2360,110,2320,110,2280,110C2240,110,2200,110,2160,110C2120,110,2080,110,2040,110C2000,110,1960,110,1920,110C1880,110,1840,110,1800,110C1760,110,1720,110,1680,110C1640,110,1600,110,1560,110C1520,110,1480,110,1440,110C1400,110,1360,110,1320,110C1280,110,1240,110,1200,110C1160,110,1120,110,1080,110C1040,110,1000,110,960,110C920,110,880,110,840,110C800,110,760,110,720,110C680,110,640,110,600,110C560,110,520,110,480,110C440,110,400,110,360,110C320,110,280,110,240,110C200,110,160,110,120,110C80,110,40,110,20,110L0,110Z"></path></svg>